<?xml version="1.0" encoding="utf-8"?>
<!-- Generator: Adobe Illustrator 19.0.0, SVG Export Plug-In . SVG Version: 6.00 Build 0)  -->
<svg version="1.1" id="Layer_1" xmlns="http://www.w3.org/2000/svg" xmlns:xlink="http://www.w3.org/1999/xlink" x="0px" y="0px"
	 viewBox="-172 394.9 250 52" style="enable-background:new -172 394.9 250 52;" xml:space="preserve">
<style type="text/css">
	.st0{fill:#2E4355;}
	.st1{fill:#81A6BB;}
</style>
<path class="st0" d="M-96.5,436.7c-8.8,0-12.9-6.7-12.9-15.2c0-8.5,4.1-15.3,12.9-15.3c8.8,0,12.8,6.7,12.8,15.3
	C-83.7,429.9-87.6,436.7-96.5,436.7z M-96.5,410.6c-6.2,0-7.9,5.3-7.9,10.9c0,5.6,1.8,10.9,7.9,10.9c6,0,7.8-5.2,7.8-10.9
	C-88.8,415.9-90.4,410.6-96.5,410.6z"/>
<path class="st0" d="M-80,415.2c0-0.2,0.2-0.4,0.4-0.4h3.8c0.2,0,0.4,0.1,0.4,0.4v12.9c0,3.1,1.2,4.5,3.7,4.5c3.4,0,5.1-3.1,5.1-6.1
	v-11.2c0-0.2,0.2-0.4,0.4-0.4h3.8c0.2,0,0.4,0.1,0.4,0.4v20.3c0,0.2-0.1,0.4-0.4,0.4h-2.2c-0.2,0-0.4-0.1-0.5-0.3
	c-0.4-0.9-0.9-1.8-1.3-2.7c-1.5,2.4-3.9,3.6-6.6,3.6c-4.8,0-7.2-2.7-7.2-7.7L-80,415.2z"/>
<path class="st0" d="M-59,418.6c-0.2,0-0.4-0.2-0.4-0.4v-2.9c0-0.2,0.2-0.4,0.4-0.4h3.3V411c0-0.2,0.1-0.4,0.3-0.5l3.9-1.8
	c0.3-0.2,0.5,0,0.5,0.3v5.9h5c0.2,0,0.4,0.1,0.4,0.4v2.9c0,0.2-0.1,0.4-0.4,0.4h-5v10.9c0,2,0.8,3,2.6,3c0.9,0,1.6-0.1,2.5-0.2
	c0.2,0,0.4,0.1,0.5,0.3l0.3,2.9c0,0.2-0.1,0.4-0.3,0.5c-1.3,0.4-2.5,0.5-3.9,0.5c-4.5,0-6.4-2.4-6.4-6.9v-10.9H-59z"/>
<path class="st0" d="M-22.7,425.4c0,6.4-3.2,11.2-9.2,11.2c-2.5,0-4.7-0.8-6.2-2.7v9.8c0,0.2-0.1,0.4-0.4,0.4h-3.8
	c-0.2,0-0.4-0.1-0.4-0.4v-28.4c0-0.2,0.2-0.4,0.4-0.4h2.6c0.2,0,0.4,0.1,0.5,0.3l1.1,2.5c1.4-2.2,3.9-3.4,6.5-3.4
	C-25.6,414.2-22.7,419.1-22.7,425.4L-22.7,425.4z M-32.7,418.2c-3.9,0-5.4,3.1-5.4,7c0,4.7,1.5,7.6,5.4,7.6c3.5,0,5.2-3,5.2-7.3
	C-27.5,421.1-29.2,418.2-32.7,418.2z"/>
<path class="st0" d="M-10,436.6c-6.7,0-10.2-4.6-10.2-11.2c0-6.6,3.7-11.2,10.2-11.2c6.6,0,10.2,4.6,10.2,11.1
	C0.2,432-3.5,436.6-10,436.6z M-10,418.2c-4,0-5.4,3.4-5.4,7.2c0,4,1.3,7.3,5.4,7.3c4.2,0,5.4-3.5,5.4-7.3
	C-4.6,421.5-5.9,418.2-10,418.2z"/>
<path class="st0" d="M11.8,436.6c-4.7,0-9-2-9.4-6.8c0-0.2,0.1-0.4,0.4-0.4h3.7c0.2,0,0.4,0.1,0.4,0.4c0.4,2.3,2.3,3.2,4.9,3.2
	c2.8,0,4.4-0.9,4.4-2.8c0-2.3-2.4-2.5-5.6-3.1c-4.6-0.4-7.7-2.4-7.7-6.2c0-4.3,3.9-6.6,8.7-6.6c5.3,0,8.4,2.7,8.8,6.4
	c0,0.2-0.1,0.4-0.4,0.4l-3.6,0c-0.2,0-0.4-0.1-0.5-0.4c-0.4-1.8-1.8-2.9-4.3-2.9c-2.8,0-4.3,1.1-4.3,2.7c0,1.7,1.1,2.2,4,2.7
	c6.4,1,9.4,2.1,9.4,6.8C20.7,434.4,17.1,436.6,11.8,436.6z"/>
<path class="st0" d="M22.5,418.6c-0.2,0-0.4-0.2-0.4-0.4v-2.9c0-0.2,0.2-0.4,0.4-0.4h3.3V411c0-0.2,0.1-0.4,0.3-0.5l3.9-1.8
	c0.3-0.2,0.5,0,0.5,0.3v5.9h5c0.2,0,0.4,0.1,0.4,0.4v2.9c0,0.2-0.1,0.4-0.4,0.4h-5v10.9c0,2,0.8,3,2.6,3c0.9,0,1.6-0.1,2.5-0.2
	c0.2,0,0.4,0.1,0.5,0.3l0.3,2.9c0,0.2-0.1,0.4-0.3,0.5c-1.3,0.4-2.5,0.5-3.9,0.5c-4.5,0-6.4-2.4-6.4-6.9v-10.9H22.5z"/>
<path class="st1" d="M39.4,436.1c-0.2,0-0.4-0.2-0.4-0.4v-2c0-0.2,0.1-0.3,0.2-0.5c1.6-1.6,8-8.6,9.1-9.6c3.3-3,5-5.7,5-8.6
	c0-3.3-2.1-5.2-5.4-5.2c-3.7,0-5.5,1.8-6,5c0,0.2-0.2,0.4-0.4,0.4h-2.1c-0.3,0-0.5-0.2-0.4-0.4c0.7-4.1,3.4-7.7,9.1-7.7
	c5.1,0,8.4,3.1,8.4,7.7c0,3.7-1.9,7-5.8,10.5c-0.8,0.7-6.8,7.3-7.7,8h13.4c0.2,0,0.4,0.1,0.4,0.4v1.9c0,0.2-0.2,0.4-0.4,0.4
	L39.4,436.1z"/>
<path class="st1" d="M57.9,426.8c0-0.2,0-0.4,0.2-0.5L71.1,408c0.1-0.2,0.2-0.2,0.5-0.2H74c0.2,0,0.4,0.1,0.4,0.4v18.1h3.2
	c0.2,0,0.4,0.1,0.4,0.4v1.6c0,0.2-0.1,0.4-0.4,0.4h-3.2v6.9c0,0.2-0.1,0.4-0.4,0.4h-2.3c-0.2,0-0.4-0.2-0.4-0.4v-6.9h-13
	c-0.2,0-0.4-0.2-0.4-0.4V426.8z M71.3,412.1L61,426.3h10.3V412.1z"/>
<path class="st1" d="M-145.9,436.7c-8.8,0-15.9-7.1-15.9-15.8c0-8.7,7.1-15.8,15.9-15.8c5.3,0,10.2,2.6,13.2,7
	c1.8,2.6,2.7,5.7,2.7,8.8C-130,429.6-137.1,436.7-145.9,436.7z M-145.9,406.7c-7.8,0-14.2,6.4-14.2,14.2c0,7.8,6.4,14.2,14.2,14.2
	c7.8,0,14.2-6.4,14.2-14.2c0-2.8-0.8-5.6-2.4-7.9C-136.8,409.1-141.2,406.7-145.9,406.7z"/>
<path class="st1" d="M-145.9,445.7c-13.7,0-24.9-11.1-24.9-24.8c0-13.7,11.2-24.8,24.9-24.8c8.3,0,16,4.1,20.7,11
	c2.8,4.1,4.3,8.9,4.3,13.9C-121,434.6-132.2,445.7-145.9,445.7z M-145.9,397.7c-12.8,0-23.3,10.4-23.3,23.2
	c0,12.8,10.4,23.2,23.3,23.2c12.8,0,23.2-10.4,23.2-23.2c0-4.6-1.4-9.1-4-12.9C-131,401.5-138.2,397.7-145.9,397.7z"/>
<path class="st0" d="M-145.9,446.9c-14.4,0-26.1-11.7-26.1-26c0-12.5,8.9-23.2,21.2-25.6c1.6-0.3,3.2-0.5,4.9-0.5
	c3.4,0,6.8,0.7,9.9,2l-1.5,3.7c-2.7-1.1-5.5-1.6-8.4-1.6c-1.4,0-2.8,0.1-4.1,0.4c-10.4,2-18,11.1-18,21.6c0,12.1,9.9,22,22.1,22
	c12.2,0,22.1-9.9,22.1-22c0-4.4-1.3-8.7-3.8-12.3l3.3-2.2c2.9,4.3,4.5,9.3,4.5,14.5C-119.8,435.2-131.5,446.9-145.9,446.9z"/>
<path class="st0" d="M-145.9,437.9c-9.4,0-17.1-7.6-17.1-17c0-8.2,5.8-15.2,13.9-16.7c1-0.2,2.1-0.3,3.2-0.3c2.2,0,4.4,0.4,6.5,1.3
	l-1.5,3.7c-2.3-1-4.9-1.2-7.4-0.7c-6.2,1.2-10.6,6.5-10.6,12.8c0,7.2,5.9,13,13,13c7.2,0,13-5.8,13-13c0-2.6-0.8-5.1-2.2-7.3
	l3.3-2.2c1.9,2.8,2.9,6.1,2.9,9.5C-128.8,430.3-136.5,437.9-145.9,437.9z"/>
<path class="st0" d="M-145.9,413.2c-4.3,0-7.7,3.4-7.7,7.7c0,4.2,3.5,7.7,7.7,7.7s7.7-3.4,7.7-7.7
	C-138.2,416.6-141.6,413.2-145.9,413.2z M-145.9,422.9c-1.1,0-2-0.9-2-2.1s0.9-2.1,2-2.1s2,0.9,2,2.1S-144.8,422.9-145.9,422.9z"/>
</svg>
